# xmcd
#
# Track frame offsets: 
#        150
#        9793
#        21096
#        36058
#        47213
#        56756
#        66003
#        85588
#
# Disc length: 1500 seconds
#
# Revision: 2
# Processed by: cddbd v1.5.1PL0 Copyright (c) Steve Scherf et al.
# Submitted via: ExactAudioCopy v0.95a5
#
DISCID=5705da08
DTITLE=Various Artist - Wrangler Cowboy Christmas - Volume X
DYEAR=2002
DGENRE=Christmas
TTITLE0=George Strait - Santa's on His Way
TTITLE1=Lee Ann Womack - Silent Night
TTITLE2=Toby Keith - Santa's Gonna Take It All Back
TTITLE3=Darryl Worley - Just Around the Corner
TTITLE4=Reba McEntire - Up On The Housetop
TTITLE5=Aaron Tippin - Jingle Bell Rock
TTITLE6=SheDaisy - What Child Is This
TTITLE7=Vince Gill - Breath of Heaven (Mary's Song)
EXTD=
EXTT0=
EXTT1=
EXTT2=
EXTT3=
EXTT4=
EXTT5=
EXTT6=
EXTT7=
PLAYORDER=
